<svg width="1024" height="1024" viewBox="220 200 640 640" fill="none" xmlns="http://www.w3.org/2000/svg">
  <defs>
    <linearGradient id="gold" x1="240" y1="220" x2="800" y2="780" gradientUnits="userSpaceOnUse">
      <stop offset="0" stop-color="#FFD95A"/>
      <stop offset="0.45" stop-color="#FFBF0A"/>
      <stop offset="1" stop-color="#D18B00"/>
    </linearGradient>
    <linearGradient id="goldSoft" x1="330" y1="260" x2="720" y2="700" gradientUnits="userSpaceOnUse">
      <stop offset="0" stop-color="#FFE58A"/>
      <stop offset="0.5" stop-color="#FFC61A"/>
      <stop offset="1" stop-color="#B97800"/>
    </linearGradient>
    <linearGradient id="darkPanel" x1="250" y1="240" x2="740" y2="760" gradientUnits="userSpaceOnUse">
      <stop offset="0" stop-color="#24211A"/>
      <stop offset="1" stop-color="#090909"/>
    </linearGradient>
    <linearGradient id="glass" x1="585" y1="565" x2="765" y2="765" gradientUnits="userSpaceOnUse">
      <stop offset="0" stop-color="#FFE17A"/>
      <stop offset="0.45" stop-color="#FFB800"/>
      <stop offset="1" stop-color="#2D1D00"/>
    </linearGradient>
    <filter id="softGlow" x="-30%" y="-30%" width="160%" height="160%">
      <feGaussianBlur stdDeviation="12" result="blur"/>
      <feColorMatrix in="blur" type="matrix"
        values="1 0 0 0 0
                0 0.74 0 0 0
                0 0 0 0 0
                0 0 0 0.45 0" result="glow"/>
      <feMerge>
        <feMergeNode in="glow"/>
        <feMergeNode in="SourceGraphic"/>
      </feMerge>
    </filter>
    <filter id="shadow" x="-20%" y="-20%" width="140%" height="140%">
      <feDropShadow dx="0" dy="10" stdDeviation="14" flood-color="#000000" flood-opacity="0.45"/>
    </filter>
    <clipPath id="docClip">
      <path d="M428 220H644L756 332V660C756 700.869 722.869 734 682 734H428C387.131 734 354 700.869 354 660V294C354 253.131 387.131 220 428 220Z"/>
    </clipPath>
  </defs>

  <!-- transparent background -->

  <!-- outer glow group -->
  <g filter="url(#softGlow)">
    <!-- document -->
    <g filter="url(#shadow)">
      <path d="M428 220H644L756 332V660C756 700.869 722.869 734 682 734H428C387.131 734 354 700.869 354 660V294C354 253.131 387.131 220 428 220Z"
            fill="url(#goldSoft)" stroke="#0A0A0A" stroke-width="18" stroke-linejoin="round"/>
      <path d="M644 220V294C644 319.405 664.595 340 690 340H756"
            fill="none" stroke="#0A0A0A" stroke-width="18" stroke-linecap="round" stroke-linejoin="round"/>
      <path d="M644 220L756 332H690C664.595 332 644 311.405 644 286V220Z"
            fill="#FFF1A8" fill-opacity="0.8"/>
      <g clip-path="url(#docClip)" opacity="0.85">
        <rect x="348" y="214" width="416" height="520" fill="url(#gold)"/>
        <path d="M350 580C470 470 590 500 760 360V760H350V580Z" fill="#F4A400" fill-opacity="0.18"/>
      </g>
      <path d="M444 402H652" stroke="#9B5E00" stroke-width="18" stroke-linecap="round"/>
      <path d="M444 462H652" stroke="#9B5E00" stroke-width="18" stroke-linecap="round" opacity="0.95"/>
      <path d="M444 522H606" stroke="#9B5E00" stroke-width="18" stroke-linecap="round" opacity="0.9"/>
    </g>

    <!-- speech bubble -->
    <g filter="url(#shadow)">
      <path d="M276 288H496C538.526 288 573 322.474 573 365V421C573 463.526 538.526 498 496 498H428L371 553V498H344C301.474 498 267 463.526 267 421V365C267 322.474 301.474 288 344 288H276Z"
            fill="url(#darkPanel)" stroke="#0A0A0A" stroke-width="18" stroke-linejoin="round"/>
      <path d="M286 310H484C522.66 310 554 341.34 554 380V393C554 431.66 522.66 463 484 463H406L388 480V463H357C318.34 463 287 431.66 287 393V380C287 341.34 318.34 310 357 310Z"
            fill="none" stroke="url(#gold)" stroke-opacity="0.5" stroke-width="6"/>
      <path d="M412 358C412 326.52 437.52 301 469 301C500.48 301 526 326.52 526 358C526 382.216 511.209 399.102 489.389 411.35C475.267 419.275 469 427.68 469 439"
            stroke="url(#gold)" stroke-width="20" stroke-linecap="round" stroke-linejoin="round"/>
      <circle cx="469" cy="470" r="14" fill="url(#gold)"/>
      <path d="M309 316C322 304 337 297 357 297H491" stroke="#FFF0A0" stroke-opacity="0.32" stroke-width="8" stroke-linecap="round"/>
    </g>

    <!-- magnifying glass -->
    <g filter="url(#shadow)">
      <circle cx="678" cy="618" r="120" fill="url(#glass)" stroke="#0A0A0A" stroke-width="18"/>
      <circle cx="678" cy="618" r="87" fill="none" stroke="#FFF3B5" stroke-opacity="0.9" stroke-width="12"/>
      <path d="M751 691L824 764" stroke="#0A0A0A" stroke-width="58" stroke-linecap="round"/>
      <path d="M751 691L824 764" stroke="url(#darkPanel)" stroke-width="38" stroke-linecap="round"/>
      <path d="M630 560C655 530 701 520 733 542" stroke="#FFF6C8" stroke-opacity="0.9" stroke-width="18" stroke-linecap="round"/>
      <ellipse cx="639" cy="575" rx="18" ry="28" transform="rotate(35 639 575)" fill="#FFF7D3" fill-opacity="0.75"/>
    </g>
  </g>
</svg>
